<svg width="800" height="600" xmlns="http://www.w3.org/2000/svg">

 <g>
  <title>Layer 1</title>
  <g stroke="null">
   <metadata fill="#ffffff" stroke="null">Created by potrace 1.15, written by Peter Selinger 2001-2017</metadata>
   <g stroke="null" fill="#000000" transform="translate(0 932) scale(0.1 -0.1)">
    <path fill="#ffffff" stroke="null" d="m5718.01619,8520.51915l0,-760.31314l740.93131,0l740.93131,0l0,760.31314l0,760.31314l-740.93131,0l-740.93131,0l0,-760.31314zm1112.327,408.46949c10.54045,-8.27119 1.24005,-25.44981 -133.30563,-240.50073c-79.36335,-127.24906 -197.16833,-309.85146 -262.27108,-405.92451l-117.80498,-173.69497l-11.16047,13.9974c-26.0411,33.08476 -221.96938,374.11224 -221.96938,386.2009c0,3.18123 26.66113,19.08736 58.90249,35.62974l58.90249,29.90353l65.10275,-133.61151c35.96152,-73.80446 68.20288,-132.33902 71.30301,-130.43029c3.10013,1.90874 110.98469,143.79144 239.95014,314.94143c128.96545,171.78623 235.60996,311.7602 237.47003,311.7602c2.4801,0 8.68037,-3.81747 14.88063,-8.27119z"/>
    <path fill="#ffffff" stroke="null" d="m3789.73471,6425.9996l0,-1637.05917l170.50721,0l170.50721,0l0,1326.57146c0,1300.48541 0,1326.57146 11.7805,1326.57146c11.16047,0 1063.34493,76.34944 1359.09743,98.61802c70.06296,5.08996 129.58548,9.54368 131.44555,9.54368c2.4801,0 4.34018,22.90483 4.34018,50.89962l0,50.89962l-753.33183,0l-753.33183,0l0,203.5985l0,202.96225l-170.50721,1.90874l-170.50721,1.90874l0,-1636.42293z"/>
    <path fill="#ffffff" stroke="null" d="m5718.01619,7540.70138l0,-194.05482l89.9038,0l89.9038,0l0,89.07434l0,89.07434l235.60996,0l235.60996,0l0,-89.07434l0,-89.07434l89.9038,0l89.9038,0l0,89.07434l0,89.07434l235.60996,0l235.60996,0l0,-89.07434l0,-89.07434l89.9038,0l89.9038,0l0,194.05482l0,194.05482l-740.93131,0l-740.93131,0l0,-194.05482z"/>
    <path fill="#ffffff" stroke="null" d="m816.70908,7582.05732c-1.24005,-5.08996 -34.72147,-152.69887 -74.40314,-327.66633c-39.68168,-174.96746 -85.56362,-377.92971 -102.30432,-451.73417c-39.06165,-172.42248 -179.18757,-792.76165 -239.33011,-1059.34843c-26.0411,-113.88791 -48.36204,-211.86969 -49.6021,-217.59589c-3.10013,-10.81617 -16.12068,-11.45242 -164.30694,-11.45242l-160.58679,0l0,-206.77972l0,-206.77972l1100.54651,0l1100.54651,0l0,206.77972l0,206.77972l-108.50459,0l-108.50459,0l0,152.06263c0,222.68586 23.561,206.77972 -311.25315,209.32471l-246.77043,1.90874l-3.10013,13.9974c-1.24005,7.63494 -9.92042,52.80836 -18.60079,99.89051c-43.40183,228.41206 -93.62396,387.47339 -139.5059,440.918c-50.84215,59.80706 -144.4661,75.07695 -275.91166,45.80966c-24.18102,-5.72621 -47.12199,-12.72491 -52.0822,-15.26989c-7.44031,-5.08996 13.02055,-89.07434 207.70878,-856.38618c11.7805,-45.17342 21.08089,-85.25687 21.08089,-89.07434c0,-4.45372 -86.80367,-6.36245 -248.01048,-6.36245c-136.40576,0 -248.01048,1.90874 -248.01048,3.81747c0,3.81747 17.36073,81.4394 124.00524,552.89717c44.64189,197.87229 97.96414,432.64681 117.80498,521.72115c20.46086,89.07434 66.3428,292.67284 102.30432,451.73417c35.96152,159.06133 67.58286,297.12656 69.44293,307.30648l3.72016,17.17862l651.64754,0l652.26756,0l22.94097,-99.89051c113.46479,-499.45257 183.52776,-813.1215 181.04765,-815.66648c-1.86008,-1.27249 -117.18495,-71.89572 -256.07082,-157.15259c-138.26584,-84.62063 -257.31087,-160.97006 -263.51114,-169.24125c-9.30039,-13.36115 -9.92042,-17.81487 -3.72016,-32.44851c12.40052,-27.99479 63.24267,-57.26208 104.1644,-60.4433c34.10144,-1.90874 35.96152,-1.90874 135.78574,59.80706c55.18233,33.721 101.6843,60.4433 103.54438,59.17081c1.24005,-1.27249 90.52383,-145.06393 197.78836,-319.39514l196.54831,-316.85016l18.60079,-80.16691c9.92042,-43.90093 17.36073,-83.34814 16.12068,-87.80185c-1.86008,-3.81747 -125.86532,-82.07564 -275.29163,-173.69497l-272.1915,-166.69627l-1101.78656,0c-605.7656,0 -1101.78656,-2.54498 -1101.78656,-5.08996c0,-12.08866 86.80367,-999.54138 89.9038,-1023.7187l3.72016,-27.35855l86.80367,0l86.18364,0l0,53.44461c0,64.89702 13.64058,149.51765 34.72147,216.95965c66.3428,208.68846 218.24922,370.29477 409.21729,434.55554c92.3839,31.17602 230.02972,34.35725 324.2737,8.27119c168.0271,-46.44591 321.17357,-181.32991 399.9169,-352.4799c42.78181,-93.52806 63.8627,-180.05742 70.06296,-291.40035l3.72016,-69.35074l492.92083,0l492.92083,0l-4.34018,38.17472c-2.4801,21.63234 -4.34018,70.62323 -4.34018,109.43419c1.24005,351.20741 218.24922,655.96891 530.74243,743.13452c70.06296,19.7236 197.16833,24.17732 271.57148,10.17992c96.72409,-19.08736 176.08744,-53.44461 264.13116,-115.1604l50.22212,-34.35725l0,1443.6406l0,1444.27684l-170.50721,0l-170.50721,0l0,-1087.97947l0,-1088.61572l-88.04372,1.90874l-88.04372,1.90874l-26.0411,114.52416c-31.62134,141.8827 -112.22474,496.90758 -194.68823,862.11239c-84.32356,374.11224 -152.52645,675.05627 -208.3288,920.64696c-27.90118,124.70408 -45.88194,218.23214 -45.88194,239.86448c0,24.17732 -2.4801,35.62974 -7.44031,35.62974c-4.34018,0 -434.01834,0.63625 -955.46037,1.90874c-837.03537,1.27249 -947.40003,0 -949.88014,-8.27119zm1847.05805,-1308.75659c9.92042,-32.44851 57.04241,-250.04441 53.32225,-245.59069c-7.44031,8.27119 -124.00524,198.50854 -127.7254,207.41597c-1.24005,4.45372 11.7805,16.54238 29.76126,27.99479c38.44162,24.17732 40.3017,24.17732 44.64189,10.17992z"/>
    <path fill="#ffffff" stroke="null" d="m4961.58423,6522.70889l0,-760.31314l740.93131,0l740.93131,0l0,760.31314l0,760.31314l-740.93131,0l-740.93131,0l0,-760.31314zm1109.8469,407.197c6.20026,-7.63494 -4.34018,-28.63104 -62.62265,-122.1591c-170.50721,-274.22173 -246.1504,-391.29086 -346.59465,-539.53602l-107.26453,-157.15259l-41.54176,65.53327c-47.74202,75.07695 -194.68823,335.93752 -191.5881,339.11875c3.10013,3.18123 116.56493,61.07955 118.425,61.07955c1.24005,0 31.00131,-59.80706 66.96283,-133.61151c35.96152,-73.16821 66.3428,-133.61151 68.20288,-133.61151c1.86008,0.63625 109.12461,141.8827 238.71009,314.94143c129.58548,173.05872 238.71009,314.94143 242.43024,314.94143c3.72016,0 10.54045,-4.45372 14.88063,-9.54368z"/>
    <path fill="#ffffff" stroke="null" d="m6480.64842,6522.70889l0,-760.31314l740.93131,0l740.93131,0l0,760.31314l0,760.31314l-740.93131,0l-740.93131,0l0,-760.31314zm1110.46692,408.46949c9.30039,-6.9987 -6.20026,-34.99349 -142.60603,-252.58939c-84.32356,-134.884 -202.12854,-317.48641 -262.27108,-405.92451l-109.74464,-160.97006l-24.18102,36.90223c-45.88194,69.35074 -214.52907,363.93231 -210.80891,367.74979c1.24005,0.63625 28.52121,14.63364 60.76257,31.17602c47.74202,23.54108 60.14254,27.35855 65.10275,20.35985c3.72016,-4.45372 32.86139,-64.89702 65.10275,-132.97527c32.24136,-68.71449 60.76257,-124.06783 63.24267,-123.43159c2.4801,0.63625 69.44293,87.16561 148.18626,192.14608c289.55224,384.92841 328.61389,435.82803 332.95407,435.82803c2.4801,0 8.68037,-3.81747 14.2606,-8.27119z"/>
    <path fill="#ffffff" stroke="null" d="m4961.58423,5542.89112l0,-194.05482l89.9038,0l89.9038,0l0,89.07434l0,89.07434l235.60996,0l235.60996,0l0,-89.07434l0,-89.07434l89.9038,0l89.9038,0l0,89.07434l0,89.07434l232.50983,0l232.50983,0l0,-89.07434l0,-89.07434l93.00393,0l93.00393,0l0,194.05482l0,194.05482l-740.93131,0l-740.93131,0l0,-194.05482z"/>
    <path fill="#ffffff" stroke="null" d="m6480.64842,5542.89112l0,-194.05482l89.9038,0l89.9038,0l0,89.07434l0,89.07434l235.60996,0l235.60996,0l0,-89.07434l0,-89.07434l89.9038,0l89.9038,0l0,89.07434l0,89.07434l235.60996,0l235.60996,0l0,-89.07434l0,-89.07434l89.9038,0l89.9038,0l0,194.05482l0,194.05482l-740.93131,0l-740.93131,0l0,-194.05482z"/>
    <path fill="#ffffff" stroke="null" d="m4961.58423,4524.89863l0,-760.31314l740.93131,0l740.93131,0l0,760.31314l0,760.31314l-740.93131,0l-740.93131,0l0,-760.31314zm1116.04716,401.47079c0,-11.45242 -280.25184,-454.27915 -398.67685,-629.24661l-124.00524,-183.23865l-20.46086,31.81227c-45.88194,69.98698 -216.38914,369.02228 -212.04896,372.83975c2.4801,2.54498 115.9449,60.4433 117.80498,60.4433c1.24005,0 31.00131,-59.80706 66.96283,-133.61151c35.96152,-73.16821 66.3428,-133.61151 68.20288,-132.97527c1.86008,0 110.36466,143.15519 241.19019,317.48641c216.38914,288.85537 238.71009,316.85016 249.25053,309.85146c6.20026,-3.81747 11.7805,-10.17992 11.7805,-13.36115z"/>
    <path fill="#ffffff" stroke="null" d="m6480.64842,4524.89863l0,-760.31314l740.93131,0l740.93131,0l0,760.31314l0,760.31314l-740.93131,0l-740.93131,0l0,-760.31314zm1101.16653,370.29477c-11.16047,-18.45111 -75.6432,-121.52285 -143.22605,-230.3208c-124.62527,-199.14478 -354.03496,-543.98974 -362.71533,-543.98974c-8.06034,0 -73.78312,107.52546 -157.48665,257.67935l-78.1233,139.97397l57.04241,29.90353c31.62134,16.54238 59.52252,29.90353 62.00262,29.90353c3.10013,0.63625 34.72147,-59.80706 70.68299,-134.24776c59.52252,-122.1591 66.3428,-133.61151 74.40314,-122.79534c4.34018,6.36245 112.22474,149.51765 239.33011,318.7589c226.92959,302.21652 230.64975,306.67024 244.91035,297.12656l13.64058,-9.54368l-20.46086,-32.44851z"/>
    <path fill="#ffffff" stroke="null" d="m3203.80995,4773.0343c-243.6703,-39.44721 -440.83863,-234.77452 -509.66154,-505.17877c-19.22081,-75.07695 -26.0411,-208.05222 -14.2606,-287.58288c44.02186,-313.03269 273.43155,-554.80591 553.6834,-584.07319c67.58286,-6.9987 151.28639,-0.63625 212.04896,16.54238c46.50197,12.72491 141.36597,57.26208 180.42762,85.25687c44.02186,31.17602 122.14516,109.43419 156.86663,157.78884c141.986,196.5998 173.60734,474.00275 81.22343,710.68601c-86.80367,222.68586 -275.91166,378.56596 -497.88104,409.10573c-60.14254,8.90743 -99.20419,8.27119 -162.44686,-2.54498zm173.60734,-395.74458c40.3017,-13.9974 72.54307,-36.90223 106.64451,-73.16821c88.66375,-96.70929 107.88456,-246.86318 47.12199,-370.29477c-21.70092,-43.90093 -83.70354,-105.61672 -127.10537,-126.61282c-19.22081,-9.54368 -52.0822,-19.7236 -73.16309,-22.26859c-144.4661,-20.35985 -269.09137,80.16691 -301.95276,243.68195c-8.06034,43.26468 -8.68037,57.89832 -2.4801,101.79925c27.90118,186.41987 192.82815,303.48901 350.93483,246.86318z"/>
    <path fill="#ffffff" stroke="null" d="m940.09429,4591.06814c-257.31087,-30.53977 -463.15957,-276.13046 -478.0402,-569.43955c-13.02055,-255.13437 119.04503,-491.81762 329.85394,-591.70813c130.2055,-61.71579 292.65237,-62.98829 420.99779,-3.18123c127.10537,59.17081 238.09006,180.69367 290.79229,319.39514c145.70616,377.92971 -75.02317,799.76035 -442.07868,845.57001c-57.66244,6.9987 -58.28246,6.9987 -121.52514,-0.63625zm135.16571,-350.57116c31.62134,-10.81617 83.70354,-48.35464 104.1644,-75.07695c88.66375,-114.52416 77.50328,-279.94793 -24.80105,-377.29347c-50.22212,-47.7184 -91.14385,-63.62453 -158.10668,-60.4433c-39.68168,1.27249 -57.04241,5.72621 -86.80367,20.35985c-171.74726,87.16561 -187.24791,355.66113 -26.0411,465.09532c57.04241,38.81096 128.96545,48.99089 191.5881,27.35855z"/>
    <path fill="#ffffff" stroke="null" d="m4961.58423,3545.08086l0,-194.05482l89.9038,0l89.9038,0l0,89.07434l0,89.07434l235.60996,0l235.60996,0l0,-89.07434l0,-89.07434l89.9038,0l89.9038,0l0,89.07434l0,89.07434l234.3699,0l233.74988,0l-1.86008,-89.07434l-1.86008,-89.07434l93.00393,0l93.62396,0l0,194.05482l0,194.05482l-740.93131,0l-740.93131,0l0,-194.05482z"/>
    <path fill="#ffffff" stroke="null" d="m6480.64842,3545.08086l0,-194.05482l89.9038,0l89.9038,0l0,89.07434l0,89.07434l235.60996,0l235.60996,0l0,-89.07434l0,-89.07434l89.9038,0l89.9038,0l0,89.07434l0,89.07434l235.60996,0l235.60996,0l0,-89.07434l0,-89.07434l89.9038,0l89.9038,0l0,194.05482l0,194.05482l-740.93131,0l-740.93131,0l0,-194.05482z"/>
   </g>
  </g>
 </g>
</svg>