<?xml version="1.0" encoding="iso-8859-1"?>
<!-- Generator: Adobe Illustrator 19.0.0, SVG Export Plug-In . SVG Version: 6.00 Build 0)  -->
<svg version="1.1" id="Layer_1" xmlns="http://www.w3.org/2000/svg" xmlns:xlink="http://www.w3.org/1999/xlink" x="0px" y="0px"
	 viewBox="0 0 512 512" style="enable-background:new 0 0 512 512;" xml:space="preserve">
<polygon style="fill:#FFC222;" points="466.319,286.162 411.027,286.162 395.354,296.612 374.455,356.814 395.354,423.884 
	466.319,423.884 "/>
<polygon style="fill:#FEDF77;" points="324.389,286.162 324.389,305.542 303.49,369.371 324.389,423.884 395.354,423.884 
	395.354,296.612 379.68,286.162 "/>
<polygon style="fill:#FFC222;" points="263.408,315.991 242.509,367.804 263.408,423.884 324.389,423.884 324.389,305.542 
	279.082,305.542 "/>
<polygon style="fill:#FEDF77;" points="202.429,305.542 181.529,364.712 202.429,423.884 263.408,423.884 263.408,315.991 
	247.735,305.542 "/>
<polygon style="fill:#FFC222;" points="202.429,271.785 139.728,271.785 124.054,282.234 103.155,351.608 124.054,423.884 
	202.429,423.884 202.429,305.542 "/>
<polygon style="fill:#FEDF77;" points="45.681,271.785 45.681,423.884 124.054,423.884 124.054,282.234 108.381,271.785 "/>
<polygon style="fill:#FFC222;" points="466.319,97.814 427.015,97.814 411.342,108.264 390.442,151.161 411.342,204.51 
	466.319,204.51 "/>
<polygon style="fill:#FEDF77;" points="356.363,97.814 335.463,149.087 356.363,204.51 411.342,204.51 411.342,108.264 
	395.668,97.814 "/>
<polygon style="fill:#FFC222;" points="356.363,35.888 285.148,35.888 269.475,46.337 248.576,123.451 269.475,204.51 
	356.363,204.51 356.363,97.814 "/>
<polygon style="fill:#FEDF77;" points="182.587,35.888 182.587,71.663 161.688,132.702 182.587,204.51 269.475,204.51 
	269.475,46.337 253.802,35.888 "/>
<polygon style="fill:#FFC222;" points="114.133,82.113 93.234,138.086 114.133,204.51 182.587,204.51 182.587,71.663 
	129.807,71.663 "/>
<polygon style="fill:#FEDF77;" points="45.681,71.663 45.681,204.51 114.133,204.51 114.133,82.113 98.46,71.663 "/>
<rect x="30.007" style="fill:#9D9D9D;" width="31.347" height="512"/>
<rect x="450.644" style="fill:#6F6F6F;" width="31.347" height="512"/>
<g>
	<rect x="98.461" y="71.659" style="fill:#FF9500;" width="31.347" height="51.273"/>
	<rect x="253.806" y="35.892" style="fill:#FF9500;" width="31.347" height="51.273"/>
	<rect x="395.672" y="97.813" style="fill:#FF9500;" width="31.347" height="51.273"/>
	<rect x="379.685" y="286.166" style="fill:#FF9500;" width="31.347" height="51.273"/>
	<rect x="247.735" y="305.539" style="fill:#FF9500;" width="31.347" height="51.273"/>
	<rect x="108.377" y="271.788" style="fill:#FF9500;" width="31.347" height="51.273"/>
</g>
<polygon style="fill:#9D9D9D;" points="504.151,188.836 256,188.836 235.101,204.51 256,220.183 504.151,220.183 "/>
<rect x="7.849" y="188.834" style="fill:#D4D4D4;" width="248.153" height="31.347"/>
<polygon style="fill:#9D9D9D;" points="504.151,408.21 256,408.21 235.101,423.884 256,439.557 504.151,439.557 "/>
<rect x="7.849" y="408.21" style="fill:#D4D4D4;" width="248.153" height="31.347"/>
<g>
</g>
<g>
</g>
<g>
</g>
<g>
</g>
<g>
</g>
<g>
</g>
<g>
</g>
<g>
</g>
<g>
</g>
<g>
</g>
<g>
</g>
<g>
</g>
<g>
</g>
<g>
</g>
<g>
</g>
</svg>
